# xmcd
#
# Track frame offsets: 
#        150
#        25012
#        41590
#        63227
#        85982
#        118417
#        151610
#        172585
#        188262
#        207752
#        224022
#
# Disc length: 3248 seconds
#
# Revision: 1
# Processed by: cddbd v1.5.2PL0 Copyright (c) Steve Scherf et al.
# Submitted via: ExactAudioCopy v0.99pb5
#
DISCID=850cae0b
DTITLE=Michael Chapman - The Twisted Road
DYEAR=2003
DGENRE=Folk/Rock
TTITLE0=Another Crossroads
TTITLE1=Sometimes
TTITLE2=The Twisted Road
TTITLE3=All Day, All Night
TTITLE4=Memphis In Winter
TTITLE5=That Time Of Night
TTITLE6=A Girl On A Train
TTITLE7=After All This Time
TTITLE8=Full Bottle, Empty Heart
TTITLE9=Cowboy On A Beach
TTITLE10=I Got Plans
EXTD=
EXTT0=
EXTT1=
EXTT2=
EXTT3=
EXTT4=
EXTT5=
EXTT6=
EXTT7=
EXTT8=
EXTT9=
EXTT10=
PLAYORDER=
